<?xml version="1.0" encoding="UTF-8"?>
<svg width="400px" height="400px" viewBox="0 0 400 400" version="1.1" xmlns="http://www.w3.org/2000/svg" xmlns:xlink="http://www.w3.org/1999/xlink">
    <!-- Generator: Sketch 55.1 (78136) - https://sketchapp.com -->
    <title>69</title>
    <desc>Created with Sketch.</desc>
    <g id="69" stroke="none" stroke-width="1" fill="none" fill-rule="evenodd">
        <g id="Group" transform="translate(44.000000, 156.000000)" fill="#FFFFFF" fill-rule="nonzero">
            <path d="M51,49.0551724 C51,53.7351724 52.442623,58.0551724 54.9672131,61.6551724 L73,25.6551724 C60.7377049,26.7351724 51,36.8151724 51,49.0551724 Z" id="Path"></path>
            <path d="M259.196272,25.8467212 L221.141772,51.582479 L185.624238,50.8575281 L182,65.719022 L213.893295,67.5313993 C217.517534,67.8938748 220.416924,69.3437766 222.591467,71.8811049 C224.403586,74.0559576 224.76601,76.9557613 224.041162,79.855565 C223.316315,82.3928933 222.229043,84.2052706 220.779348,85.6551724 C243.249624,84.567746 261.008391,58.4695128 261.008391,58.4695128 C262.095663,57.3820864 263.907782,57.3820864 264.995053,58.4695128 L288.190177,78.0431877 C295.076229,84.9302215 304.499249,86.7425988 309.210758,82.0304178 L309.210758,82.0304178 C313.922268,77.3182368 312.472572,68.2563502 306.311368,61.3693165 L279.854429,36.3585096 L279.854429,36.3585096 L267.53202,26.2091967 C265.357477,24.3968194 261.733239,24.0343439 259.196272,25.8467212 Z" id="Path"></path>
            <path d="M98.3641975,70.0891347 C99.0925926,79.76838 107.469136,87.6551724 117.302469,87.6551724 L156.271605,86.9381913 C155.907407,86.5797007 155.907407,86.5797007 155.54321,86.2212101 C153.722222,84.4287573 152.993827,81.9193234 153.358025,79.4098894 L154.450617,70.8061158 L157,50.3721535 L117.302469,49.6551724 C106.740741,49.6551724 98,58.258946 98,68.6551724 L98,68.6551724 C98,68.6551724 98,68.6551724 98,68.6551724 C98,68.6551724 98,68.6551724 98,68.6551724 C98,69.013663 98,69.7306441 98.3641975,70.0891347 Z" id="Path"></path>
            <path d="M220.791161,79.3189279 C221.877019,74.9695829 218.619444,70.9826833 213.552106,70.9826833 L178.08074,69.1704563 L186.405652,32.9259148 C187.129558,31.1136877 187.49151,29.3014606 187.853463,27.1267881 C187.853463,27.1267881 187.853463,27.1267881 187.853463,27.1267881 L187.853463,27.1267881 C187.853463,27.1267881 187.853463,27.1267881 187.853463,27.1267881 C188.215416,18.0656528 180.252456,9.72940822 170.11778,9.36696281 C170.11778,9.36696281 148.400616,10.8167445 137.903987,10.8167445 C136.818129,10.8167445 135.732271,10.8167445 135.008366,10.8167445 C126.3215,10.4542991 100.260904,4.65517241 100.260904,4.65517241 C99.8989514,4.65517241 99.5369987,4.65517241 99.5369987,4.65517241 C92.2979443,4.65517241 85.7827953,9.00451739 82.5252208,15.1660894 L82.5252208,15.1660894 L56.8265775,66.9957838 L13.3922507,68.4455654 C6.15319628,68.4455654 0,72.432465 0,78.9564825 C0,82.2184912 2.53366906,87.6551724 15.2020144,87.6551724 L68.0471119,87.6551724 L63.3417265,87.6551724 C68.4090646,87.6551724 78.5437408,85.4804999 81.8013153,81.8560458 L102.794573,49.5984039 C109.671675,44.1617226 127.407358,43.4368318 135.732271,43.4368318 C138.26594,43.4368318 140.075704,43.4368318 140.075704,43.4368318 C140.075704,43.4368318 141.523515,43.7992772 142.24742,46.3363951 L160.707009,46.3363951 L157.811387,71.3451287 L156.725529,80.0438187 C156.363576,83.6682729 160.345056,86.9302816 163.964583,86.9302816 C163.964583,86.9302816 163.964583,86.9302816 163.964583,86.9302816 L171.927543,86.9302816 L176.632929,86.9302816 L212.828201,86.5678362 C216.809681,86.2053908 220.067255,82.943382 220.791161,79.3189279 Z" id="Path"></path>
            <path d="M210.936977,47.4158158 C223.624144,49.2330535 235.586331,40.5103123 237.761274,27.7896479 C239.573726,15.0689836 230.873954,3.07521439 218.186787,0.894529074 C205.49962,-0.922708687 193.537433,7.80003257 191.36249,20.5206969 C191.36249,21.6110395 191,22.3379347 191,23.4282773 C191,24.51862 191,25.6089626 191,26.6993053 C192.449962,37.2392843 200.424753,45.9620255 210.936977,47.4158158 Z" id="Path"></path>
        </g>
    </g>
</svg>