<?xml version="1.0" encoding="UTF-8"?>
<svg width="400px" height="400px" viewBox="0 0 400 400" version="1.1" xmlns="http://www.w3.org/2000/svg" xmlns:xlink="http://www.w3.org/1999/xlink">
    <!-- Generator: Sketch 55.1 (78136) - https://sketchapp.com -->
    <title>amazon2</title>
    <desc>Created with Sketch.</desc>
    <g id="amazon2" stroke="none" stroke-width="1" fill="none" fill-rule="evenodd">
        <g id="Group" transform="translate(64.000000, 93.000000)" fill="#FFFFFF" fill-rule="nonzero">
            <path d="M55.3815029,192.666667 C56.1445087,202.952381 64.9190751,211.333333 75.2196532,211.333333 L112.988439,211.333333 C111.080925,209.809524 109.554913,207.52381 108.410405,204.857143 C105.358382,196.857143 106.50289,187.333333 111.843931,181.238095 L111.843931,181.238095 L111.843931,181.238095 L121,171.333333 L75.2196532,171.333333 C64.1560694,171.333333 55,180.47619 55,191.52381 C55,191.52381 55,191.52381 55,191.52381 C55,191.52381 55,191.52381 55,191.52381 C55.3815029,191.52381 55.3815029,191.904762 55.3815029,192.666667 Z" id="Path"></path>
            <ellipse id="Oval" cx="25" cy="189.833333" rx="25" ry="24.5"></ellipse>
            <path d="M120.648425,210.333333 L120.648425,210.333333 L150.529089,210.333333 L176.195813,210.333333 C188.454547,210.333333 195.350085,202.675903 196.499341,197.698573 L199.94711,195.018472 L219.101382,179.70361 C220.250638,178.554996 222.166065,178.554996 223.315322,179.70361 L247.832789,200.378673 C255.111413,207.653233 265.071634,209.56759 270.051745,204.59026 L270.051745,204.59026 C275.031855,199.61293 273.499514,190.041142 266.987061,182.766583 L239.021824,156.348447 L239.021824,156.348447 L225.99692,144.096558 C223.698407,141.799328 219.867553,141.799328 217.56904,143.713686 L167.384848,180.086482 C167.384848,180.086482 167.384848,180.086482 167.384848,180.086482 L166.235592,180.852225 L166.235592,180.852225 L162.021652,183.915197 L162.021652,183.915197 L156.27537,183.915197 L179.643582,166.685978 L179.643582,166.685978 C186.156034,162.474391 189.603803,154.434089 188.071461,146.393787 C188.071461,146.393787 178.11124,119.975651 176.195813,111.169605 C174.280386,101.980688 172.364959,74.4139379 172.364959,74.4139379 C170.449531,64.8421495 162.404737,58.3333333 153.976858,58.3333333 C152.827601,58.3333333 152.061431,58.3333333 150.912174,58.7162049 C142.101209,60.247691 139.802697,66.3736356 134.439501,76.3282955 C129.45939,86.2829555 122.563852,94.7061293 123.713108,101.597817 C125.24545,109.255248 131.757903,110.403862 136.354928,110.403862 C138.65344,110.403862 140.568868,110.020991 140.568868,110.020991 C140.568868,110.020991 149.762918,140.650714 143.633551,151.371117 L114.135972,183.149454 C106.474264,191.572628 109.922033,209.56759 120.648425,210.333333 Z" id="Path"></path>
            <ellipse id="Oval" transform="translate(154.446744, 28.574097) rotate(-81.419372) translate(-154.446744, -28.574097) " cx="154.446744" cy="28.5740965" rx="24.8427509" ry="24.9010313"></ellipse>
            <path d="M197.782537,47.2235632 C197.406026,46.8393151 197.029516,46.455067 197.029516,46.0708189 C197.029516,46.0708189 197.029516,46.0708189 197.029516,46.0708189 C197.029516,46.0708189 197.029516,46.0708189 197.029516,46.0708189 C197.029516,46.0708189 197.029516,46.0708189 197.029516,46.0708189 C195.523473,44.5338266 194.393941,43.7653304 193.264409,43.3810823 C192.511387,42.9968343 191.381855,42.6125862 190.252323,42.6125862 C183.09862,41.0755938 176.321428,46.0708189 175.191895,52.9872845 C174.438874,57.5982615 175.944917,62.2092385 178.957002,64.8989751 C184.228152,69.8942002 194.01743,78.7319061 184.981173,93.3333333 C184.981173,93.3333333 214.725518,66.8202155 197.782537,47.2235632 Z" id="Path"></path>
        </g>
    </g>
</svg>