<?xml version="1.0" encoding="UTF-8"?>
<svg width="400px" height="400px" viewBox="0 0 400 400" version="1.1" xmlns="http://www.w3.org/2000/svg" xmlns:xlink="http://www.w3.org/1999/xlink">
    <!-- Generator: Sketch 55.1 (78136) - https://sketchapp.com -->
    <title>amazon</title>
    <desc>Created with Sketch.</desc>
    <g id="amazon" stroke="none" stroke-width="1" fill="none" fill-rule="evenodd">
        <g id="Group" transform="translate(91.000000, 92.000000)" fill="#FFFFFF" fill-rule="nonzero">
            <path d="M218.979635,201.205882 L218.979635,201.205882 C219.410377,194.147059 212.949236,187.970588 205.195867,187.529412 L154.368224,184.441176 L138,184 C147.47634,185.764706 152.645253,191.5 152.645253,200.323529 C152.645253,204.294118 150.060797,209.147059 145.322627,212.676471 C145.322627,212.676471 145.322627,212.676471 145.322627,212.676471 L153.937481,212.235294 L203.903639,214 C212.087751,214 218.548892,208.264706 218.979635,201.205882 Z" id="Path"></path>
            <circle id="Oval" cx="33" cy="56" r="28"></circle>
            <path d="M50.7857143,151.448472 L50.7857143,151.448472 L69.8846154,141.55057 L56.4285714,104.110684 C52.0879121,92.4914089 39.0659341,86.036256 27.3461538,90.3396912 L27.3461538,90.3396912 C18.6648352,93.3520959 13.021978,100.667936 12.1538462,109.274806 C12.1538462,109.274806 12.1538462,109.274806 12.1538462,109.274806 L0,208.253817 C0.434065934,211.696565 2.6043956,215.139313 6.07692308,216 L47.7472527,216 L50.3516484,216 C48.1813187,214.708969 46.4450549,212.557252 45.5769231,210.405534 C42.9725275,203.520038 47.3131868,195.343511 59.032967,185.015266 L79,167.801525 L78.1318681,165.649808 L78.1318681,165.649808 C72.0549451,167.371182 64.6758242,169.092556 61.6373626,169.953243 C59.9010989,170.383587 58.1648352,170.81393 56.4285714,170.81393 C52.956044,170.81393 50.3516484,169.522899 48.1813187,166.940838 C46.4450549,164.358777 45.5769231,161.776716 46.010989,158.764311 C46.4450549,155.751907 48.1813187,153.169846 50.7857143,151.448472 Z M32.5549451,194.913167 C30.8186813,194.482824 29.5164835,192.76145 29.9505495,190.609732 L32.5549451,172.965648 L40.3681319,194.913167 L32.5549451,194.913167 Z" id="Shape"></path>
            <path d="M149,199.62069 C149,190.137931 141.249887,187.12069 132.208088,187.12069 C131.777526,187.12069 131.777526,187.12069 131.346964,187.12069 L113.263366,187.12069 C118.430109,182.37931 140.388763,186.689655 136.944268,168.155172 C136.944268,168.155172 127.902469,137.982759 126.610784,127.637931 C125.319098,117.293103 125.319098,85.8275862 125.319098,85.8275862 C124.027413,74.6206897 114.555052,66 104.652129,66 C103.791006,66 103.360444,66 102.49932,66 C92.5963975,67.2931034 89.1519027,73.7586207 82.693475,84.1034483 C76.2350472,94.8793103 67.6238102,103.5 68.4849339,111.689655 C69.7766194,121.603448 79.2489802,122.896552 83.9851605,122.896552 C85.7074079,122.896552 86.5685316,122.896552 86.5685316,122.896552 C86.5685316,122.896552 87.8602172,128.931034 88.7213409,137.12069 L84.4157224,139.275862 L79.2489802,141.431034 L53.845831,154.793103 C52.1235836,155.655172 51.2624599,157.37931 50.831898,159.534483 C50.4013362,161.258621 50.831898,163.413793 52.1235836,164.706897 C53.4152691,166.431034 55.5680784,168.155172 61.1653824,166.431034 C66.3321246,165.137931 79.2489802,161.689655 85.7074079,159.965517 L91.304712,158.241379 C91.304712,160.396552 91.304712,161.258621 91.304712,161.689655 L91.304712,162.551724 L62.0265061,187.982759 C51.6930217,196.603448 47.3874032,203.931034 49.5402125,209.103448 C51.2624599,213.844828 59.0125732,216 63.7487535,216 C64.6098772,216 65.0404391,216 65.4710009,216 L124.027413,214.706897 C141.249887,214.275862 149,204.362069 149,199.62069 Z" id="Path"></path>
            <ellipse id="Oval" transform="translate(105.559766, 31.878671) rotate(-81.419372) translate(-105.559766, -31.878671) " cx="105.559766" cy="31.8786713" rx="27.9637484" ry="27.9648427"></ellipse>
            <path d="M140.407055,106 C140.407055,106 174.400592,75.8478268 155.037185,53.5614379 C154.606887,53.1244499 154.176589,52.6874618 154.176589,52.2504738 C154.176589,52.2504738 154.176589,52.2504738 154.176589,52.2504738 C154.176589,52.2504738 154.176589,52.2504738 154.176589,52.2504738 C154.176589,52.2504738 154.176589,52.2504738 154.176589,52.2504738 C152.455398,50.5025217 151.164504,49.6285457 149.87361,49.1915577 C149.013014,48.7545697 147.72212,48.3175817 146.431226,48.3175817 C138.255566,46.5696296 130.510203,52.2504738 129.219309,60.1162581 C128.358713,65.3601144 130.079905,70.6039706 133.522288,73.6628867 C139.54646,79.3437309 150.734206,89.8314433 140.407055,106 Z" id="Path"></path>
        </g>
    </g>
</svg>