<?xml version="1.0" encoding="UTF-8"?>
<svg width="400px" height="400px" viewBox="0 0 400 400" version="1.1" xmlns="http://www.w3.org/2000/svg" xmlns:xlink="http://www.w3.org/1999/xlink">
    <!-- Generator: Sketch 55.1 (78136) - https://sketchapp.com -->
    <title>behind</title>
    <desc>Created with Sketch.</desc>
    <g id="behind" stroke="none" stroke-width="1" fill="none" fill-rule="evenodd">
        <g id="Group" transform="translate(66.000000, 105.000000)" fill="#FFFFFF" fill-rule="nonzero">
            <path d="M168.918832,129.903183 L168.14758,117.156811 C170.846963,113.294274 175.08885,110.590498 178.173859,108.659229 C182.030121,106.341707 184.343877,102.092916 183.958251,97.4578719 C183.958251,90.1190515 177.788233,84.3252459 170.461337,84.3252459 C169.304458,84.3252459 168.533206,84.3252459 167.376327,84.7114996 C166.990701,84.7114996 166.219449,85.0977533 165.833823,85.0977533 C165.833823,84.7114996 165.833823,84.7114996 165.833823,84.3252459 C165.448197,80.0764551 163.905692,75.8276644 161.206309,72.351381 C160.049431,71.1926199 158.892552,70.0338588 157.350048,68.8750977 C148.480647,62.3087847 135.754984,64.2400532 129.19934,73.5101422 L87.1660908,134.151974 C84.0810817,138.400765 82.9242033,143.422063 83.3098295,148.443361 L62.8716442,162.734748 L15.0540032,162.734748 C8.11273269,162.734748 0.014583806,168.1423 0.014583806,175.094867 C-0.371042331,182.433687 6.95585428,188.613746 14.2827509,188.613746 L66.3422794,189 L68.6560363,189 C68.6560363,189 115.316799,189 129.584966,189 C138.454367,189 148.095021,184.364956 156.578796,178.184896 L145.010011,136.85575 C137.297489,140.718287 129.970592,143.808316 129.970592,143.808316 C125.343078,146.898346 122.643695,152.305898 121.872443,157.71345 L110.689285,159.644718 L142.310628,121.405602 L145.395638,117.929318 L147.323768,134.151974 L161.206309,183.206194 C162.363188,186.682478 165.448197,189 168.918832,189 C169.304458,189 169.690084,189 170.461337,189 C175.474476,188.227493 178.559485,183.592448 177.788233,178.57115 L168.918832,129.903183 Z" id="Path"></path>
            <path d="M261.582042,173.878281 L223.519286,170.789256 C221.981397,170.789256 220.82798,169.630871 220.82798,168.086358 L212.754062,122.137103 C212.754062,119.434206 212.36959,117.117437 210.831701,111.325514 C208.524867,101.672309 197.375171,97.8110272 188.91678,103.989078 C188.91678,103.989078 180.073918,112.09777 172,119.048078 L172.768945,129.473539 L178.536029,159.20541 C181.227335,156.502513 182.765224,154.571872 182.765224,154.571872 C182.765224,154.571872 189.301253,166.541846 198.144115,161.522179 L205.833561,186.234383 C206.602505,188.937281 209.293811,190.867922 211.985117,190.867922 L258.121791,190.867922 C262.350986,191.640178 266.195709,188.937281 267.733598,185.075999 C268.887015,179.670204 266.195709,175.036666 261.582042,173.878281 Z" id="Path"></path>
            <ellipse id="Oval" transform="translate(147.560383, 35.540784) rotate(-40.550955) translate(-147.560383, -35.540784) " cx="147.560383" cy="35.5407845" rx="25.0577934" ry="25.0595712"></ellipse>
            <ellipse id="Oval" transform="translate(203.048133, 72.729018) rotate(-81.419372) translate(-203.048133, -72.729018) " cx="203.048133" cy="72.7290184" rx="25.0649251" ry="25.0539425"></ellipse>
        </g>
    </g>
</svg>