<?xml version="1.0" encoding="UTF-8"?>
<svg width="400px" height="400px" viewBox="0 0 400 400" version="1.1" xmlns="http://www.w3.org/2000/svg" xmlns:xlink="http://www.w3.org/1999/xlink">
    <!-- Generator: Sketch 55.1 (78136) - https://sketchapp.com -->
    <title>blowjob</title>
    <desc>Created with Sketch.</desc>
    <g id="blowjob" stroke="none" stroke-width="1" fill="none" fill-rule="evenodd">
        <g id="Group" transform="translate(92.000000, 59.000000)" fill="#FFFFFF" fill-rule="nonzero">
            <circle id="Oval" cx="38.5" cy="24.5" r="24.5"></circle>
            <path d="M41.9707759,264.048871 C41.217722,271.17386 46.1125726,277.173851 53.266585,277.92385 C60.0440705,278.673849 66.445029,273.798856 67.198083,267.048867 L73.2225145,223.173933 L75.1051494,206.298959 C73.9755685,205.54896 73.2225145,205.17396 72.4694606,204.048962 L72.4694606,204.048962 L72.4694606,204.048962 L54.396166,180.423998 C51.3839502,176.674004 51.0074232,171.424012 54.019639,168.049017 C55.5257469,166.174019 58.1614357,165.049021 60.7971245,165.049021 C63.4328133,165.049021 66.0685021,166.174019 67.9511369,168.049017 L67.9511369,168.049017 L67.9511369,168.049017 L77.7408382,179.673999 L80,157.549033 L64.9389211,69.424166 C63.0562863,58.5491824 52.8900581,51.4241932 42.3473029,53.2991904 L42.3473029,53.2991904 C35.1932904,54.4241887 29.5453859,59.2991813 27.286224,65.6741717 C26.9096971,66.4241705 26.5331701,66.79917 26.1566431,67.5491688 L0.929336034,110.299104 C-0.576771851,112.549101 -0.20024488,115.924096 1.68238998,117.799093 L31.8045477,152.67404 C33.6871825,156.049035 37.8289792,157.549033 41.217722,156.424034 C43.1003568,159.42403 45.7360456,161.674026 48.7482614,163.174024 L46.8656265,220.173938 L41.9707759,264.048871 Z M23.8974813,114.049098 C23.1444273,112.9241 23.1444273,111.424102 23.8974813,110.299104 L30.2984398,101.299118 L34.8167634,129.424075 L23.8974813,114.049098 Z" id="Shape"></path>
            <path d="M105.21866,278 L105.21866,278 L105.21866,278 C105.21866,278 105.21866,278 105.21866,278 L105.21866,278 L167.661079,276.875 C179.626093,276.875 180,271.625 180,268.625 C180,262.25 174.3914,260.375 167.287172,260.375 L137.748543,259.625 L157.565598,249.125 C165.417639,243.5 167.287172,232.625 162.052478,224.75 C162.052478,224.75 144.478864,207.125 139.991983,200.375 C135.131196,193.625 123.540089,171.875 123.540089,171.875 C120.174928,166.625 114.566328,164 108.957727,164 C105.966474,164 102.97522,164.75 100.357873,166.625 C98.8622464,167.375 98.114433,168.5 96.9927129,169.625 C96.9927129,169.625 96.6188062,170 96.6188062,170 L83.1581651,185 C82.4103517,185.75 81.6625383,186.125 80.9147249,186.125 C80.1669115,186.125 79.0451914,185.75 78.297378,185 L66.3323637,170.375 C64.8367369,168.875 62.9672034,168.125 61.4715766,168.125 C59.9759498,168.125 58.480323,168.875 57.3586029,170 C55.4890694,172.25 55.4890694,175.625 57.7325096,178.25 L75.6800311,201.875 C76.8017512,203.375 78.6712847,204.125 80.9147249,204.125 C82.4103517,204.125 83.9059785,203.75 85.4016053,202.625 L93.2536459,195.5 C92.5058325,201.875 92.1319259,207.5 94.7492727,210.875 C96.9927129,213.875 99.6100598,215 102.227407,215 C107.088194,215 111.201167,212 111.201167,212 C111.201167,212 124.287902,227.75 126.157435,237.125 L99.6100598,258.875 C92.8797392,264.875 95.8709928,277.25 105.21866,278 Z" id="Path"></path>
            <ellipse id="Oval" transform="translate(105.706342, 133.836853) rotate(-81.419372) translate(-105.706342, -133.836853) " cx="105.706342" cy="133.836853" rx="24.3536462" ry="24.374348"></ellipse>
            <path d="M148.3327,140.112632 C147.955856,140.112632 147.579012,139.741755 147.202168,139.741755 C147.202168,139.741755 147.202168,139.741755 147.202168,139.741755 C147.202168,139.741755 147.202168,139.741755 147.202168,139.741755 C147.202168,139.741755 147.202168,139.741755 147.202168,139.741755 C144.941104,139 143.433727,139 142.303195,139 C141.172663,139 140.418975,139.370877 139.288443,139.370877 C132.50525,141.225265 128.359966,148.271937 130.62103,154.947732 C131.751562,159.398262 135.143159,162.365282 139.288443,163.477914 C146.071636,165.332302 158.884333,168.670199 157.376957,184.988809 C157.753801,185.730564 172.073874,149.38457 148.3327,140.112632 Z" id="Path"></path>
        </g>
    </g>
</svg>