<?xml version="1.0" encoding="UTF-8"?>
<svg width="400px" height="400px" viewBox="0 0 400 400" version="1.1" xmlns="http://www.w3.org/2000/svg" xmlns:xlink="http://www.w3.org/1999/xlink">
    <!-- Generator: Sketch 55.1 (78136) - https://sketchapp.com -->
    <title>cunnilingus</title>
    <desc>Created with Sketch.</desc>
    <g id="cunnilingus" stroke="none" stroke-width="1" fill="none" fill-rule="evenodd">
        <g id="Group" transform="translate(14.000000, 152.000000)" fill="#FFFFFF" fill-rule="nonzero">
            <path d="M192.170797,64.8333333 C194.532439,62.5078496 197.287688,60.1823658 200.436543,57.856882 C204.76622,54.3686564 209.489503,50.4928501 215,44.6791407 C215,42.7412375 214.606393,41.190915 213.819179,39.2530119 C210.276717,29.1759156 198.862115,23.3622062 188.628335,26.8504318 C178.394555,30.3386575 172.49045,41.5784957 176.032913,51.655592 C178.788161,58.6320433 185.085873,63.6705914 192.170797,64.8333333 Z" id="Path"></path>
            <path d="M186.124155,90.5513303 C190.050342,87.4371463 187.302011,81.9873242 182.590586,80.0409592 L146.469664,79.2624132 L163.744888,75.3696831 C172.3825,73.4233181 177.879162,64.859312 175.916068,56.2953059 C173.952975,47.7312998 165.315363,42.2814778 156.677751,44.2278428 L100.140654,57.4631249 C95.4292296,58.6309439 91.8956611,61.355855 89.5399488,64.859312 L48.3149827,74.2018641 L10.6235851,74.2018641 C5.12692299,74.2018641 0.0228795723,78.4838672 0.0228795723,83.9336892 C-0.369739152,89.7727843 4.34168554,94.4440603 10.2309664,94.8333333 L49.1002201,94.8333333 L91.8956611,92.1084223 L116.630641,86.2693272 L116.238022,87.8264193 C116.238022,88.2156923 116.238022,88.6049653 116.238022,88.9942383 C116.630641,91.3298763 118.986353,93.2762413 122.127303,93.6655143 L174.345593,93.6655143 C181.020112,93.2762413 183.768443,92.4976953 186.124155,90.5513303 Z" id="Path"></path>
            <path d="M284.985906,74.5511757 C284.593833,67.1403873 279.888959,64.4100968 272.439574,59.3395574 C264.99019,54.269018 259.109097,47.6383126 253.228003,48.0283541 C251.267639,48.0283541 249.699348,48.8084371 248.131056,49.5885201 L242.249963,44.5179806 L240.289599,42.5677732 L255.580441,14.4847856 C260.285315,6.29391425 256.364586,3.56362379 254.012149,2.00345781 C252.835931,1.22337483 251.267639,0.833333333 250.09142,0.833333333 C246.954837,0.833333333 244.210327,3.56362379 241.85789,7.07399723 L226.959121,30.8665284 C226.174975,30.4764869 224.998757,30.0864454 224.214611,30.0864454 C222.254246,30.0864454 220.685955,30.8665284 219.509736,32.4266943 C217.941445,34.3769018 217.549372,36.7171508 218.725591,38.6673582 C219.117663,39.0573997 219.117663,39.8374827 219.509736,40.2275242 L220.293882,41.0076072 C201.866457,64.4100968 186.575615,62.4598893 189.320125,81.961964 C189.320125,81.961964 189.320125,81.961964 189.320125,82.3520055 C189.712198,85.082296 190.496344,87.0325035 192.064635,88.9827109 C195.593291,93.2731674 202.25853,94.8333333 208.139623,94.8333333 C208.531696,94.8333333 208.531696,94.8333333 208.923769,94.8333333 C208.923769,94.8333333 210.884133,94.4432918 214.020716,94.0532503 C221.078028,92.8831259 233.62436,90.9329184 238.721307,90.5428769 C246.170692,90.1528354 268.126773,94.0532503 268.126773,94.0532503 C277.536522,93.2731674 285.377979,82.3520055 284.985906,74.5511757 Z M233.62436,60.1196404 C232.448141,60.1196404 231.663995,60.1196404 230.487777,60.1196404 L233.62436,54.6590595 L235.584724,56.6092669 L238.721307,59.7295989 C237.153016,60.1196404 235.584724,60.1196404 233.62436,60.1196404 Z" id="Shape"></path>
            <ellipse id="Oval" transform="translate(308.703706, 73.627330) rotate(-81.419372) translate(-308.703706, -73.627330) " cx="308.703706" cy="73.6273296" rx="19.5994926" ry="19.583568"></ellipse>
            <path d="M349.465773,73.7696494 C347.134646,71.4566925 343.249434,70.300214 339.752744,71.0711997 C334.313448,72.6131709 330.816757,78.0100704 332.370842,83.4069699 C332.759363,84.1779555 332.759363,84.9489411 333.147884,85.7199268 C333.536406,86.4909124 334.313448,87.6473908 335.479011,88.4183765 C335.479011,88.4183765 335.479011,88.4183765 335.479011,88.4183765 C335.479011,88.4183765 335.479011,88.4183765 335.479011,88.4183765 C335.479011,88.4183765 335.479011,88.4183765 335.479011,88.4183765 C335.867532,88.8038693 335.867532,88.8038693 336.256054,89.1893621 C352.573942,101.910625 372,77.2390848 372,77.2390848 C361.121408,84.9489411 353.739506,77.6245776 349.465773,73.7696494 Z" id="Path"></path>
        </g>
    </g>
</svg>