<?xml version="1.0" encoding="UTF-8"?>
<svg width="400px" height="400px" viewBox="0 0 400 400" version="1.1" xmlns="http://www.w3.org/2000/svg" xmlns:xlink="http://www.w3.org/1999/xlink">
    <!-- Generator: Sketch 55.1 (78136) - https://sketchapp.com -->
    <title>doggy</title>
    <desc>Created with Sketch.</desc>
    <g id="doggy" stroke="none" stroke-width="1" fill="none" fill-rule="evenodd">
        <g id="noun_Sex-Position_728755" transform="translate(84.000000, 79.000000)" fill="#FFFFFF" fill-rule="nonzero">
            <path d="M114.268402,234.065249 L114.268402,234.065249 L114.268402,217.828963 L114.268402,195.098162 L143.029886,199.969048 C143.029886,199.969048 147.890982,214.987613 158.423356,216.611242 C162.879361,217.423056 166.120092,214.987613 170.171005,211.334449 L167.335366,232.847528 C166.930274,236.500692 169.360822,239.747949 173.411735,239.342042 L185.969567,239.342042 L185.969567,239.342042 L222.427786,238.936135 C226.88379,238.936135 230.529612,236.094785 231.744886,232.44162 C232.96016,227.976642 229.71943,224.323477 224.453242,223.91757 L189.210297,221.482127 L195.286667,186.980019 C195.286667,186.980019 195.286667,186.980019 195.286667,186.980019 C195.286667,186.574112 195.691758,185.762298 195.691758,185.356391 C196.907032,175.208712 188.805206,164.655126 177.462649,165.872847 C168.55064,166.684662 156.802991,170.337826 141.814612,167.090569 C141.814612,167.090569 141.814612,167.090569 141.814612,167.496476 C140.599338,170.743733 138.16879,173.179176 134.92806,174.802805 C133.307694,175.614619 131.687329,175.614619 130.066964,175.614619 C126.01605,175.614619 121.965137,173.585083 119.534589,170.337826 L101.30548,150.042468 C100.900388,150.042468 100.090206,150.042468 99.6851142,150.042468 C88.3425571,149.230654 77.8101827,160.190147 78.6203653,171.555548 C79.0254566,175.208712 81.4560046,183.732762 82.6712786,188.197741 L87.9374658,219.452592 L79.8356393,219.858499 L79.8356393,232.44162 C79.8356393,235.688878 78.6203653,238.124321 77,240.153856 L107.786941,240.965671 C111.027671,241.371578 114.268402,238.124321 114.268402,234.065249 Z" id="Path"></path>
            <ellipse id="Oval" transform="translate(91.503779, 30.552885) rotate(-81.419372) translate(-91.503779, -30.552885) " cx="91.5037793" cy="30.5528849" rx="26.319857" ry="26.3356555"></ellipse>
            <path d="M69.053841,240 C73.1158317,240 76.3654242,236.351351 76.3654242,232.297297 L76.3654242,208.783784 L73.1158317,165.810811 L86.9265999,120.405405 L90.5823915,131.351351 L122.672118,167.432432 C124.296914,169.864865 127.140307,171.486486 130.3899,171.486486 C131.608497,171.486486 132.827094,171.081081 134.045691,170.675676 C138.92008,168.648649 140.951076,163.378378 138.513881,159.324324 L133.639492,152.837838 C139.732478,151.216216 145.825464,152.837838 149.887455,153.648649 C154.355645,154.864865 159.230033,153.648649 162.885825,150 C168.166413,144.72973 168.572612,135.810811 162.885825,130.540541 C162.073427,129.72973 161.261029,128.918919 160.448631,128.513514 C159.230033,127.702703 158.011436,127.297297 155.980441,126.891892 C155.980441,126.891892 155.980441,126.891892 155.980441,126.891892 C155.980441,126.891892 155.980441,126.891892 155.980441,126.891892 C155.980441,126.891892 155.980441,126.891892 155.980441,126.891892 C155.574242,126.891892 155.168043,126.891892 154.355645,126.486486 C140.544876,124.459459 132.014696,134.594595 127.140307,144.72973 L110.892345,122.837838 L97.8939746,74.1891892 C97.4877756,72.972973 97.0815765,72.1621622 96.2691784,71.3513514 C93.831984,66.0810811 88.5513961,61.6216216 82.0522111,60.4054054 L82.0522111,60.4054054 C80.4274148,60 78.8026186,60 76.7716233,60 C67.0228457,60 58.4926653,66.0810811 56.055471,75 L33.3083233,146.351351 C31.6835271,153.243243 33.7145224,160.135135 38.5889112,165 L45.0880962,208.783784 L17.0603607,208.783784 C7.71778223,208.783784 0,215.27027 0,223.783784 C0,231.891892 7.31158317,238.378378 16.2479626,238.783784 L69.053841,240 C69.053841,240 69.053841,240 69.053841,240 Z" id="Path"></path>
            <ellipse id="Oval" transform="translate(196.294493, 136.221429) rotate(-81.419372) translate(-196.294493, -136.221429) " cx="196.294493" cy="136.221429" rx="26.319857" ry="26.3356555"></ellipse>
        </g>
    </g>
</svg>