<?xml version="1.0" encoding="UTF-8"?>
<svg width="400px" height="400px" viewBox="0 0 400 400" version="1.1" xmlns="http://www.w3.org/2000/svg" xmlns:xlink="http://www.w3.org/1999/xlink">
    <!-- Generator: Sketch 55.1 (78136) - https://sketchapp.com -->
    <title>missionary</title>
    <desc>Created with Sketch.</desc>
    <g id="missionary" stroke="none" stroke-width="1" fill="none" fill-rule="evenodd">
        <g id="noun_Sex-Position_728756" transform="translate(38.000000, 129.000000)" fill="#FFFFFF" fill-rule="nonzero">
            <path d="M12.4850673,141.860759 L65.3762925,143 C66.5096759,143 67.6430593,142.620253 68.7764427,142.240506 L99,127.43038 L98.6222055,125.151899 L93.7108775,83 C88.421755,86.7974684 85.3993992,92.8734177 85.0216048,98.9493671 L60.4649645,116.417722 L13.2406563,116.417722 C6.44035588,116.417722 0.395644424,121.734177 0.0178499586,128.56962 C-0.359944507,135.405063 5.30697248,141.481013 12.4850673,141.860759 Z" id="Path"></path>
            <path d="M154.200222,42.9822506 L123.172007,63.4162752 L137.929329,97.0945749 L169.335937,80.0662211 L172.363079,86.1207469 C167.443972,90.6616412 168.579151,99.3650221 168.579151,99.3650221 C168.579151,99.3650221 154.578615,98.9866142 139.821293,100.878654 C138.686114,100.878654 137.550936,101.257061 136.415757,101.257061 L119.009686,61.9026437 L128.091114,55.8481179 L111.820221,46.7663292 L111.820221,46.7663292 C110.30665,46.0095135 108.414685,45.6311056 106.522721,45.6311056 C104.630757,45.6311056 102.738792,46.0095135 100.846828,47.1447371 L100.846828,47.1447371 C96.3061137,49.4151843 93.6573636,54.7128943 94.0357565,59.2537887 L101.982007,124.718349 C101.982007,125.853572 101.982007,126.988796 102.360399,128.12402 C104.252364,140.989887 116.739328,143.638742 126.955936,142.881926 C126.955936,142.881926 154.200222,137.205808 163.660044,136.448993 C173.119865,135.692177 201.120937,134.935361 201.120937,134.935361 C201.877723,134.935361 202.634509,134.556953 203.391294,134.556953 C205.661652,136.8274 209.44558,137.584216 212.851116,136.070585 C217.39183,134.178545 219.283795,129.259243 217.013437,125.475165 L216.635045,125.096757 C218.527009,122.069494 219.283795,118.663823 218.905402,115.258152 C218.148616,106.554771 212.472723,103.149101 203.012901,97.0945749 C201.877723,96.3377592 201.120937,95.9593513 199.985759,95.2025356 L196.580223,87.6343783 L183.336473,52.820855 C182.95808,51.6856314 182.201294,50.172 181.444508,49.0367764 L181.444508,49.0367764 C175.768615,39.9549877 163.660044,37.3061327 154.200222,42.9822506 Z" id="Path"></path>
            <ellipse id="Oval" transform="translate(206.747201, 33.827436) rotate(-31.997488) translate(-206.747201, -33.827436) " cx="206.747201" cy="33.8274363" rx="24.5540064" ry="24.5371667"></ellipse>
            <ellipse id="Oval" transform="translate(246.985413, 114.258516) rotate(-81.419372) translate(-246.985413, -114.258516) " cx="246.985413" cy="114.258516" rx="24.5262324" ry="24.5629282"></ellipse>
            <path d="M276.814505,128.516725 C277.190954,129.624601 277.943852,130.732477 279.449649,131.840353 C279.449649,131.840353 279.449649,131.840353 279.449649,131.840353 C279.449649,131.840353 279.449649,131.840353 279.449649,131.840353 C279.449649,131.840353 279.449649,131.840353 279.449649,131.840353 C279.826098,132.209646 280.202548,132.578938 280.578997,132.578938 C300.907252,148.089206 325,117.807254 325,117.807254 C311.44783,127.408848 302.0366,118.176546 296.766311,113.375749 C293.754718,110.421412 289.237328,109.313536 284.719938,110.421412 C277.943852,112.267872 273.802911,118.91513 275.308708,125.93168 C275.685157,126.670264 276.061607,127.77814 276.814505,128.516725 Z" id="Path"></path>
        </g>
    </g>
</svg>