<?xml version="1.0" encoding="UTF-8"?>
<svg width="400px" height="400px" viewBox="0 0 400 400" version="1.1" xmlns="http://www.w3.org/2000/svg" xmlns:xlink="http://www.w3.org/1999/xlink">
    <!-- Generator: Sketch 55.1 (78136) - https://sketchapp.com -->
    <title>position2</title>
    <desc>Created with Sketch.</desc>
    <g id="position2" stroke="none" stroke-width="1" fill="none" fill-rule="evenodd">
        <g id="Group" transform="translate(60.000000, 117.000000)" fill="#FFFFFF" fill-rule="nonzero">
            <path d="M149.490624,71.0949367 C154.937725,62.0379747 150.171512,59.0189873 147.788405,57.3417722 C146.42663,56.6708861 145.064854,56 143.703079,56 C139.958197,56 137.234646,59.0189873 134.85154,62.7088608 L129.404438,71.4303797 L126,96.9240506 L129.063994,109 L149.490624,71.0949367 Z" id="Path"></path>
            <path d="M181.963447,138.262825 C181.625958,130.132754 176.563635,127.083977 168.463916,120.986424 C160.364198,114.888871 153.614433,107.775059 147.202156,108.113812 C137.414996,108.452565 137.414996,120.308918 137.414996,122.002683 L131.340208,117.937648 L135.052579,133.181531 L135.052579,133.520284 L135.052579,133.859037 C135.390067,136.56906 134.377602,139.279084 132.690161,141.311602 C130.665231,143.344119 127.965325,144.699131 125.265419,144.699131 L125.265419,144.699131 C120.203095,144.699131 115.815748,140.972849 114.803283,136.230307 L102.991194,101 C100.966264,101.338753 98.9413349,102.355012 97.9288701,104.38753 C96.5789171,106.420047 96.9164053,109.130071 97.9288701,110.823836 C98.2663584,111.501342 98.9413349,112.178847 99.6163114,112.856353 L99.9537997,113.195106 C85.1043163,126.067719 74.9796685,128.438989 77.3420863,145.71539 C77.3420863,148.425414 78.3545511,150.796684 79.3670159,152.829202 C83.0793867,159.604261 91.8540815,161.298026 98.9413349,160.959273 C98.9413349,160.959273 99.9537997,160.959273 101.303753,160.62052 C101.978729,160.62052 102.991194,160.281767 103.666171,160.281767 C111.4284,158.926755 125.602907,156.555484 131.677696,156.216732 C140.114903,155.877979 164.076569,160.281767 164.076569,160.281767 C173.863728,159.943014 182.638423,147.070402 181.963447,138.262825 Z" id="Path"></path>
            <path d="M12.2030106,159.98374 L59.437706,161 C59.437706,161 59.437706,161 59.437706,161 C62.8116129,161 66.1855197,157.95122 67.5350824,154.563686 L73.6081147,134.915989 L76.9820215,120.688347 L104.985448,87.1517615 L104.310667,96.6368564 L117.468903,135.254743 C118.143685,138.642276 121.517592,141.352304 124.891498,141.352304 C124.891498,141.352304 124.891498,141.352304 124.891498,141.352304 C128.940187,141.352304 132.314093,137.96477 131.976703,133.899729 L123.204545,96.9756098 L128.940187,55.6476965 C128.940187,54.6314363 128.940187,53.6151762 128.602796,52.9376694 C128.265405,47.8563686 125.90367,43.1138211 121.180201,39.7262873 L121.180201,39.7262873 C117.806294,37.3550136 114.094997,36 110.046308,36 C104.985448,36 99.9245879,38.0325203 96.5506811,42.4363144 L56.0637992,90.200542 C53.0272831,94.2655827 52.015111,99.3468835 53.3646738,104.089431 L48.3038135,135.254743 L19.2882149,135.254743 C19.2882149,135.254743 18.9508242,135.254743 18.9508242,135.254743 C7.47954103,135.254743 0.394336712,140.674797 0.0569460303,147.788618 C-0.617835333,154.563686 4.78041558,159.98374 12.2030106,159.98374 Z" id="Path"></path>
            <circle id="Oval" cx="142" cy="22" r="22"></circle>
            <ellipse id="Oval" transform="translate(208.084555, 140.888628) rotate(-81.419372) translate(-208.084555, -140.888628) " cx="208.084555" cy="140.888628" rx="21.9699849" ry="21.9758997"></ellipse>
            <path d="M253.73829,138.125693 C251.007294,135.390196 246.9108,134.364385 242.814307,135.390196 C236.669566,137.099882 232.914447,143.25475 234.279945,149.751556 C234.62132,150.777367 234.962694,151.461241 235.304068,152.145115 C235.645443,153.170927 236.328192,154.196738 237.69369,155.22255 C237.69369,155.22255 237.69369,155.22255 237.69369,155.22255 C237.69369,155.22255 237.69369,155.22255 237.69369,155.22255 C237.69369,155.22255 237.69369,155.22255 237.69369,155.22255 C238.035064,155.564487 238.376439,155.906424 238.717813,155.906424 C257.152034,170.267783 279,142.228939 279,142.228939 C266.710519,151.119304 258.176158,142.570876 253.73829,138.125693 Z" id="Path"></path>
        </g>
    </g>
</svg>