<?xml version="1.0" encoding="UTF-8"?>
<svg width="400px" height="400px" viewBox="0 0 400 400" version="1.1" xmlns="http://www.w3.org/2000/svg" xmlns:xlink="http://www.w3.org/1999/xlink">
    <!-- Generator: Sketch 55.1 (78136) - https://sketchapp.com -->
    <title>stand</title>
    <desc>Created with Sketch.</desc>
    <g id="stand" stroke="none" stroke-width="1" fill="none" fill-rule="evenodd">
        <g id="noun_Sex-Position_728754" transform="translate(121.000000, 50.000000)" fill="#FFFFFF" fill-rule="nonzero">
            <g id="Group">
                <path d="M123.564103,64.064 C113.435897,61.236 102.092308,67.7 98.8512821,79.012 C98.8512821,79.012 93.5846154,108.504 90.7487179,118.2 C90.3435897,119.816 89.5333333,122.24 88.3179487,125.068 C93.9897436,129.108 99.2564103,132.34 103.307692,134.36 C104.117949,134.764 104.523077,135.168 105.333333,135.168 C109.384615,137.188 114.651282,139.612 114.651282,146.48 C114.651282,152.54 110.194872,159.004 104.117949,159.004 C103.712821,159.004 103.307692,159.004 102.902564,159.004 C96.825641,158.196 86.6974359,152.944 78.1897436,148.5 C76.1641026,152.54 74.9487179,155.368 74.9487179,155.368 C74.1384615,157.388 74.1384615,159.408 74.1384615,161.428 L75.3538462,168.296 C76.1641026,171.124 77.7846154,173.952 80.2153846,175.972 L97.2307692,238.996 L89.9384615,285.456 C89.5333333,293.132 91.5589744,299.192 99.2564103,299.596 C102.902564,300 109.384615,299.596 110.194872,287.072 L121.133333,239.4 L113.030769,174.356 L115.461538,166.68 L119.512821,184.052 C120.323077,188.496 123.969231,191.324 128.020513,190.92 C132.476923,190.516 135.717949,186.072 134.907692,180.82 L127.615385,129.916 L127.615385,126.28 L129.235897,120.22 C129.235897,120.22 144.630769,125.068 148.276923,112.948 C150.302564,105.676 143.820513,95.98 139.769231,84.668 C134.907692,73.356 132.882051,66.892 123.564103,64.064 Z" id="Path"></path>
                <ellipse id="Oval" cx="26.3333333" cy="26.896" rx="26.3333333" ry="26.26"></ellipse>
                <path d="M66.0358974,137.592 C66.4410256,137.592 66.8461538,137.592 66.8461538,137.188 C66.8461538,137.188 93.1794872,152.944 103.307692,154.56 C103.712821,154.56 103.712821,154.56 104.117949,154.56 C108.169231,154.56 111.005128,149.712 111.005128,145.672 C111.005128,140.42 106.14359,139.208 101.687179,136.784 C93.9897436,132.744 81.4307692,124.26 72.5179487,116.988 C71.3025641,116.18 69.2769231,112.948 68.8717949,111.736 L58.7435897,94.364 L55.5025641,75.376 C53.8820513,64.872 44.5641026,57.6 34.4358974,57.6 C33.2205128,57.6 32.0051282,57.6 30.7897436,58.004 L30.7897436,58.004 C19.0410256,60.024 11.3435897,70.932 13.3692308,82.244 L26.3333333,160.62 C27.5487179,167.488 32.0051282,173.548 38.0820513,176.376 L40.9179487,237.38 L30.3846154,284.648 C29.574359,292.324 34.8410256,298.788 42.5384615,299.596 C42.9435897,299.596 43.3487179,299.596 44.1589744,299.596 C51.0461538,299.596 56.7179487,294.748 57.5282051,287.88 L69.2769231,240.612 L71.3025641,170.316 L66.0358974,137.592 Z" id="Path"></path>
                <ellipse id="Oval" transform="translate(127.744458, 31.932426) rotate(-81.419372) translate(-127.744458, -31.932426) " cx="127.744458" cy="31.9324256" rx="26.261452" ry="26.3315199"></ellipse>
                <path d="M91.1538462,63.66 C95.6102564,62.448 99.2564103,58.812 100.471795,54.368 C102.497436,47.096 98.4461538,39.42 91.1538462,37.4 C89.9384615,36.996 89.1282051,36.996 87.9128205,36.996 C86.6974359,36.996 85.0769231,36.996 83.0512821,37.4 C83.0512821,37.4 83.0512821,37.4 83.0512821,37.4 C83.0512821,37.4 83.0512821,37.4 83.0512821,37.4 C83.0512821,37.4 83.0512821,37.4 83.0512821,37.4 C82.6461538,37.4 82.2410256,37.804 81.8358974,37.804 C55.9076923,47.904 71.7076923,87.092 71.7076923,87.092 C70.0871795,69.316 83.8615385,65.68 91.1538462,63.66 Z" id="Path"></path>
            </g>
        </g>
    </g>
</svg>