<?xml version="1.0" encoding="UTF-8"?>
<svg width="400px" height="400px" viewBox="0 0 400 400" version="1.1" xmlns="http://www.w3.org/2000/svg" xmlns:xlink="http://www.w3.org/1999/xlink">
    <!-- Generator: Sketch 55.1 (78136) - https://sketchapp.com -->
    <title>stand2</title>
    <desc>Created with Sketch.</desc>
    <g id="stand2" stroke="none" stroke-width="1" fill="none" fill-rule="evenodd">
        <g id="Group" transform="translate(134.000000, 64.000000)" fill="#FFFFFF" fill-rule="nonzero">
            <path d="M103.21258,71.9969257 C103.21258,61.6023814 95.3479328,53 86.0533496,53 C86.0533496,53 86.0533496,53 86.0533496,53 C86.0533496,53 86.0533496,53 86.0533496,53 C86.0533496,53 85.6958656,53 85.6958656,53 C77.4737343,53.3584326 74.2563786,58.3764884 67.8216671,66.2620047 C62.1019236,73.7890885 54.9522442,79.882442 53.5223083,85.9757956 L54.2372763,89.2016886 L58.8845679,97.0872049 C62.4594076,98.8793677 66.7492152,99.2378003 67.4641831,99.2378003 C67.4641831,99.2378003 67.4641831,99.2378003 67.4641831,99.2378003 L67.4641831,109.632345 C75.3288305,115.725698 84.6234137,122.177484 90.3431572,125.044945 C91.0581252,125.403377 91.4156091,125.76181 92.1305771,125.76181 C95.7054168,127.553973 100.352708,129.704568 100.352708,135.797921 C100.352708,141.17441 96.4203847,146.909331 91.0581252,146.909331 C90.7006412,146.909331 90.3431572,146.909331 89.9856733,146.909331 C84.6234137,146.192466 74.9713465,141.17441 67.4641831,137.231652 L67.4641831,144.758735 L64.2468274,147.267763 L63.8893434,147.626196 L61.0294717,149.776791 L61.0294717,149.776791 L31.3583022,175.583936 C28.8559144,177.376098 27.0684945,180.243559 27.0684945,183.111019 C26.7110106,186.336912 27.7834625,189.204373 29.5708823,191.354968 L55.3097282,220.388006 C61.3869557,228.631955 65.3192793,225.764494 67.4641831,224.330764 C69.609087,222.897034 70.6815389,221.104871 70.3240549,218.595843 C70.3240549,216.445248 69.251603,213.93622 67.1066992,211.427192 L50.6624366,191.713401 C49.9474686,190.638103 49.5899846,189.204373 49.9474686,187.770643 C50.3049526,186.336912 51.0199205,185.261615 52.4498564,184.54475 L97.4928366,156.945442 C102.140128,153.361117 105,147.984628 105,141.891275 C105,141.891275 100.352708,115.367265 100.352708,106.764884 C99.9952244,98.5209352 103.21258,71.9969257 103.21258,71.9969257 Z" id="Path"></path>
            <path d="M68,179.833333 L68,207.296667 L70.45,210.15 C72.9,213.36 73.95,216.57 74.3,219.066667 C74.65,222.276667 72.9,225.13 70.1,227.27 C70.1,227.27 70.1,227.27 69.75,227.27 L73.95,257.23 C73.95,268.643333 79.55,269 82.7,269 C89.35,269 91.45,263.65 91.45,256.873333 L88.3,215.143333 L96,162 L68,179.833333 Z" id="Path"></path>
            <circle id="Oval" cx="23.5" cy="31.5" r="23.5"></circle>
            <path d="M33.9795776,164.201278 L34.3352466,171 L61.3660916,147.025559 L58.5207395,129.134185 C58.8764085,129.134185 59.2320775,129.134185 59.2320775,128.776358 C59.2320775,128.776358 82.3505634,142.731629 91.2422887,144.162939 C91.5979578,144.162939 91.5979578,144.162939 91.9536268,144.162939 C95.5103169,144.162939 98,139.86901 98,136.290735 C98,131.638978 93.7319718,130.565495 89.8196127,128.41853 C83.0619014,124.840256 72.036162,117.325879 64.2114437,110.884984 C63.1444367,110.169329 61.3660916,107.306709 61.0104226,106.233227 L52.1186973,91.5623003 L49.2733452,74.7444089 C47.8506691,65.4408946 39.6702818,59 30.7785565,59 C29.7115494,59 28.6445424,59 27.5775353,59.3578275 L27.5775353,59.3578275 C17.263134,61.1469649 10.5054227,70.8083067 12.2837678,80.827476 L23.6651762,150.603834 C24.7321832,156.686901 28.6445424,161.696486 33.9795776,164.201278 Z" id="Path"></path>
            <path d="M54.5123624,223.418367 L35.8543947,203 L36.5860797,218.137755 L27.0741746,258.97449 C26.3424896,265.663265 31.0984421,271.295918 38.0494497,272 C38.4152922,272 38.7811347,272 39.5128197,272 C45.7321423,272 50.8539374,267.77551 51.5856224,261.790816 L60,228.69898 C58.53663,227.642857 56.341575,225.882653 54.5123624,223.418367 Z" id="Path"></path>
            <path d="M55,189.913043 C55,190.282609 55,190.652174 55.3333333,191.391304 L62.6666667,201 L63,184 L56,188.804348 C55.3333333,189.173913 55,189.913043 55,189.913043 Z" id="Path"></path>
            <ellipse id="Oval" transform="translate(83.119365, 26.833132) rotate(-81.419372) translate(-83.119365, -26.833132) " cx="83.1193646" cy="26.8331325" rx="23.1775719" ry="23.1209211"></ellipse>
            <path d="M125.503479,40.4184305 C125.503479,40.4184305 125.503479,40.4184305 125.503479,40.4184305 C125.503479,40.4184305 125.503479,40.4184305 125.503479,40.4184305 C125.503479,40.0559787 125.503479,40.0559787 125.503479,40.4184305 C124.075685,38.9686233 123.00484,38.2437197 121.933994,37.881268 C121.220098,37.5188162 120.149252,37.1563644 119.078407,37.1563644 C112.296387,36.069009 106.228264,40.7808822 105.157418,47.3050144 C104.443522,51.6544358 106.228264,56.0038572 109.083851,58.5410197 C114.081129,62.8904411 123.718736,71.2268322 115.865871,85 C115.865871,85 143.3509,58.9034715 126.574324,41.143334 C126.217375,40.7808822 125.860427,40.4184305 125.503479,40.4184305 Z" id="Path"></path>
        </g>
    </g>
</svg>